<svg width="922" height="280" viewBox="0 0 922 280" xmlns="http://www.w3.org/2000/svg">
  <rect width="922" height="280" fill="#06060a" rx="8"/>
  <g opacity="0">
    <animate attributeName="opacity" from="0" to="1" dur="0.5s" begin="0.1s" fill="freeze"/>
    <animateTransform attributeName="transform" type="translate" from="0,20" to="0,0" dur="0.5s" begin="0.1s" fill="freeze"/>
    
    <!-- Card -->
    <rect x="20" y="20" width="170" height="220" fill="#111118" rx="4"/>
    <rect x="20" y="20" width="170" height="3" fill="#c9a84c" rx="2" opacity="0.9"/>
    
    <!-- Category label -->
    <text x="105" y="46" text-anchor="middle"
      style="font-family:'Courier New',monospace;font-size:9px;letter-spacing:0.3em;fill:#c9a84c;text-transform:uppercase">LLM &amp; AI</text>
    
    <!-- Divider -->
    <line x1="32" y1="52" x2="178" y2="52" stroke="#c9a84c" stroke-width="0.5" opacity="0.3"/>
    <!-- vLLM -->
    <rect x="32" y="59" width="146" height="18" fill="#c9a84c" rx="2" opacity="0.08"/>
    <rect x="32" y="59" width="146" height="18" fill="none" rx="2" stroke="#c9a84c" stroke-width="0.5" opacity="0.2"/>
    <text x="40" y="72" style="font-family:'Courier New',monospace;font-size:10px;fill:#9a9490;letter-spacing:0.05em">vLLM</text>
    <!-- LangGraph -->
    <rect x="32" y="83" width="146" height="18" fill="#c9a84c" rx="2" opacity="0.08"/>
    <rect x="32" y="83" width="146" height="18" fill="none" rx="2" stroke="#c9a84c" stroke-width="0.5" opacity="0.2"/>
    <text x="40" y="96" style="font-family:'Courier New',monospace;font-size:10px;fill:#9a9490;letter-spacing:0.05em">LangGraph</text>
    <!-- RAG -->
    <rect x="32" y="107" width="146" height="18" fill="#c9a84c" rx="2" opacity="0.08"/>
    <rect x="32" y="107" width="146" height="18" fill="none" rx="2" stroke="#c9a84c" stroke-width="0.5" opacity="0.2"/>
    <text x="40" y="120" style="font-family:'Courier New',monospace;font-size:10px;fill:#9a9490;letter-spacing:0.05em">RAG</text>
    <!-- PyTorch -->
    <rect x="32" y="131" width="146" height="18" fill="#c9a84c" rx="2" opacity="0.08"/>
    <rect x="32" y="131" width="146" height="18" fill="none" rx="2" stroke="#c9a84c" stroke-width="0.5" opacity="0.2"/>
    <text x="40" y="144" style="font-family:'Courier New',monospace;font-size:10px;fill:#9a9490;letter-spacing:0.05em">PyTorch</text>
    <!-- RAGAS -->
    <rect x="32" y="155" width="146" height="18" fill="#c9a84c" rx="2" opacity="0.08"/>
    <rect x="32" y="155" width="146" height="18" fill="none" rx="2" stroke="#c9a84c" stroke-width="0.5" opacity="0.2"/>
    <text x="40" y="168" style="font-family:'Courier New',monospace;font-size:10px;fill:#9a9490;letter-spacing:0.05em">RAGAS</text>
    <!-- Transformers -->
    <rect x="32" y="179" width="146" height="18" fill="#c9a84c" rx="2" opacity="0.08"/>
    <rect x="32" y="179" width="146" height="18" fill="none" rx="2" stroke="#c9a84c" stroke-width="0.5" opacity="0.2"/>
    <text x="40" y="192" style="font-family:'Courier New',monospace;font-size:10px;fill:#9a9490;letter-spacing:0.05em">Transformers</text>
  </g>
  <g opacity="0">
    <animate attributeName="opacity" from="0" to="1" dur="0.5s" begin="0.25s" fill="freeze"/>
    <animateTransform attributeName="transform" type="translate" from="0,20" to="0,0" dur="0.5s" begin="0.25s" fill="freeze"/>
    
    <!-- Card -->
    <rect x="198" y="20" width="170" height="220" fill="#111118" rx="4"/>
    <rect x="198" y="20" width="170" height="3" fill="#4bc8c8" rx="2" opacity="0.9"/>
    
    <!-- Category label -->
    <text x="283" y="46" text-anchor="middle"
      style="font-family:'Courier New',monospace;font-size:9px;letter-spacing:0.3em;fill:#4bc8c8;text-transform:uppercase">BACKEND</text>
    
    <!-- Divider -->
    <line x1="210" y1="52" x2="356" y2="52" stroke="#4bc8c8" stroke-width="0.5" opacity="0.3"/>
    <!-- FastAPI -->
    <rect x="210" y="59" width="146" height="18" fill="#4bc8c8" rx="2" opacity="0.08"/>
    <rect x="210" y="59" width="146" height="18" fill="none" rx="2" stroke="#4bc8c8" stroke-width="0.5" opacity="0.2"/>
    <text x="218" y="72" style="font-family:'Courier New',monospace;font-size:10px;fill:#9a9490;letter-spacing:0.05em">FastAPI</text>
    <!-- Spring Boot -->
    <rect x="210" y="83" width="146" height="18" fill="#4bc8c8" rx="2" opacity="0.08"/>
    <rect x="210" y="83" width="146" height="18" fill="none" rx="2" stroke="#4bc8c8" stroke-width="0.5" opacity="0.2"/>
    <text x="218" y="96" style="font-family:'Courier New',monospace;font-size:10px;fill:#9a9490;letter-spacing:0.05em">Spring Boot</text>
    <!-- Redis -->
    <rect x="210" y="107" width="146" height="18" fill="#4bc8c8" rx="2" opacity="0.08"/>
    <rect x="210" y="107" width="146" height="18" fill="none" rx="2" stroke="#4bc8c8" stroke-width="0.5" opacity="0.2"/>
    <text x="218" y="120" style="font-family:'Courier New',monospace;font-size:10px;fill:#9a9490;letter-spacing:0.05em">Redis</text>
    <!-- Kafka -->
    <rect x="210" y="131" width="146" height="18" fill="#4bc8c8" rx="2" opacity="0.08"/>
    <rect x="210" y="131" width="146" height="18" fill="none" rx="2" stroke="#4bc8c8" stroke-width="0.5" opacity="0.2"/>
    <text x="218" y="144" style="font-family:'Courier New',monospace;font-size:10px;fill:#9a9490;letter-spacing:0.05em">Kafka</text>
    <!-- PostgreSQL -->
    <rect x="210" y="155" width="146" height="18" fill="#4bc8c8" rx="2" opacity="0.08"/>
    <rect x="210" y="155" width="146" height="18" fill="none" rx="2" stroke="#4bc8c8" stroke-width="0.5" opacity="0.2"/>
    <text x="218" y="168" style="font-family:'Courier New',monospace;font-size:10px;fill:#9a9490;letter-spacing:0.05em">PostgreSQL</text>
    <!-- pgvector -->
    <rect x="210" y="179" width="146" height="18" fill="#4bc8c8" rx="2" opacity="0.08"/>
    <rect x="210" y="179" width="146" height="18" fill="none" rx="2" stroke="#4bc8c8" stroke-width="0.5" opacity="0.2"/>
    <text x="218" y="192" style="font-family:'Courier New',monospace;font-size:10px;fill:#9a9490;letter-spacing:0.05em">pgvector</text>
  </g>
  <g opacity="0">
    <animate attributeName="opacity" from="0" to="1" dur="0.5s" begin="0.4s" fill="freeze"/>
    <animateTransform attributeName="transform" type="translate" from="0,20" to="0,0" dur="0.5s" begin="0.4s" fill="freeze"/>
    
    <!-- Card -->
    <rect x="376" y="20" width="170" height="220" fill="#111118" rx="4"/>
    <rect x="376" y="20" width="170" height="3" fill="#3ddc84" rx="2" opacity="0.9"/>
    
    <!-- Category label -->
    <text x="461" y="46" text-anchor="middle"
      style="font-family:'Courier New',monospace;font-size:9px;letter-spacing:0.3em;fill:#3ddc84;text-transform:uppercase">DATA ENG</text>
    
    <!-- Divider -->
    <line x1="388" y1="52" x2="534" y2="52" stroke="#3ddc84" stroke-width="0.5" opacity="0.3"/>
    <!-- Apache Spark -->
    <rect x="388" y="59" width="146" height="18" fill="#3ddc84" rx="2" opacity="0.08"/>
    <rect x="388" y="59" width="146" height="18" fill="none" rx="2" stroke="#3ddc84" stroke-width="0.5" opacity="0.2"/>
    <text x="396" y="72" style="font-family:'Courier New',monospace;font-size:10px;fill:#9a9490;letter-spacing:0.05em">Apache Spark</text>
    <!-- Delta Lake -->
    <rect x="388" y="83" width="146" height="18" fill="#3ddc84" rx="2" opacity="0.08"/>
    <rect x="388" y="83" width="146" height="18" fill="none" rx="2" stroke="#3ddc84" stroke-width="0.5" opacity="0.2"/>
    <text x="396" y="96" style="font-family:'Courier New',monospace;font-size:10px;fill:#9a9490;letter-spacing:0.05em">Delta Lake</text>
    <!-- Airflow -->
    <rect x="388" y="107" width="146" height="18" fill="#3ddc84" rx="2" opacity="0.08"/>
    <rect x="388" y="107" width="146" height="18" fill="none" rx="2" stroke="#3ddc84" stroke-width="0.5" opacity="0.2"/>
    <text x="396" y="120" style="font-family:'Courier New',monospace;font-size:10px;fill:#9a9490;letter-spacing:0.05em">Airflow</text>
    <!-- Qdrant -->
    <rect x="388" y="131" width="146" height="18" fill="#3ddc84" rx="2" opacity="0.08"/>
    <rect x="388" y="131" width="146" height="18" fill="none" rx="2" stroke="#3ddc84" stroke-width="0.5" opacity="0.2"/>
    <text x="396" y="144" style="font-family:'Courier New',monospace;font-size:10px;fill:#9a9490;letter-spacing:0.05em">Qdrant</text>
    <!-- Faust -->
    <rect x="388" y="155" width="146" height="18" fill="#3ddc84" rx="2" opacity="0.08"/>
    <rect x="388" y="155" width="146" height="18" fill="none" rx="2" stroke="#3ddc84" stroke-width="0.5" opacity="0.2"/>
    <text x="396" y="168" style="font-family:'Courier New',monospace;font-size:10px;fill:#9a9490;letter-spacing:0.05em">Faust</text>
    <!-- FAISS -->
    <rect x="388" y="179" width="146" height="18" fill="#3ddc84" rx="2" opacity="0.08"/>
    <rect x="388" y="179" width="146" height="18" fill="none" rx="2" stroke="#3ddc84" stroke-width="0.5" opacity="0.2"/>
    <text x="396" y="192" style="font-family:'Courier New',monospace;font-size:10px;fill:#9a9490;letter-spacing:0.05em">FAISS</text>
  </g>
  <g opacity="0">
    <animate attributeName="opacity" from="0" to="1" dur="0.5s" begin="0.5499999999999999s" fill="freeze"/>
    <animateTransform attributeName="transform" type="translate" from="0,20" to="0,0" dur="0.5s" begin="0.5499999999999999s" fill="freeze"/>
    
    <!-- Card -->
    <rect x="554" y="20" width="170" height="220" fill="#111118" rx="4"/>
    <rect x="554" y="20" width="170" height="3" fill="#5588e0" rx="2" opacity="0.9"/>
    
    <!-- Category label -->
    <text x="639" y="46" text-anchor="middle"
      style="font-family:'Courier New',monospace;font-size:9px;letter-spacing:0.3em;fill:#5588e0;text-transform:uppercase">INFRA</text>
    
    <!-- Divider -->
    <line x1="566" y1="52" x2="712" y2="52" stroke="#5588e0" stroke-width="0.5" opacity="0.3"/>
    <!-- Kubernetes -->
    <rect x="566" y="59" width="146" height="18" fill="#5588e0" rx="2" opacity="0.08"/>
    <rect x="566" y="59" width="146" height="18" fill="none" rx="2" stroke="#5588e0" stroke-width="0.5" opacity="0.2"/>
    <text x="574" y="72" style="font-family:'Courier New',monospace;font-size:10px;fill:#9a9490;letter-spacing:0.05em">Kubernetes</text>
    <!-- Terraform -->
    <rect x="566" y="83" width="146" height="18" fill="#5588e0" rx="2" opacity="0.08"/>
    <rect x="566" y="83" width="146" height="18" fill="none" rx="2" stroke="#5588e0" stroke-width="0.5" opacity="0.2"/>
    <text x="574" y="96" style="font-family:'Courier New',monospace;font-size:10px;fill:#9a9490;letter-spacing:0.05em">Terraform</text>
    <!-- AWS EKS -->
    <rect x="566" y="107" width="146" height="18" fill="#5588e0" rx="2" opacity="0.08"/>
    <rect x="566" y="107" width="146" height="18" fill="none" rx="2" stroke="#5588e0" stroke-width="0.5" opacity="0.2"/>
    <text x="574" y="120" style="font-family:'Courier New',monospace;font-size:10px;fill:#9a9490;letter-spacing:0.05em">AWS EKS</text>
    <!-- Docker -->
    <rect x="566" y="131" width="146" height="18" fill="#5588e0" rx="2" opacity="0.08"/>
    <rect x="566" y="131" width="146" height="18" fill="none" rx="2" stroke="#5588e0" stroke-width="0.5" opacity="0.2"/>
    <text x="574" y="144" style="font-family:'Courier New',monospace;font-size:10px;fill:#9a9490;letter-spacing:0.05em">Docker</text>
    <!-- Ray -->
    <rect x="566" y="155" width="146" height="18" fill="#5588e0" rx="2" opacity="0.08"/>
    <rect x="566" y="155" width="146" height="18" fill="none" rx="2" stroke="#5588e0" stroke-width="0.5" opacity="0.2"/>
    <text x="574" y="168" style="font-family:'Courier New',monospace;font-size:10px;fill:#9a9490;letter-spacing:0.05em">Ray</text>
    <!-- GitHub Actions -->
    <rect x="566" y="179" width="146" height="18" fill="#5588e0" rx="2" opacity="0.08"/>
    <rect x="566" y="179" width="146" height="18" fill="none" rx="2" stroke="#5588e0" stroke-width="0.5" opacity="0.2"/>
    <text x="574" y="192" style="font-family:'Courier New',monospace;font-size:10px;fill:#9a9490;letter-spacing:0.05em">GitHub Actions</text>
  </g>
  <g opacity="0">
    <animate attributeName="opacity" from="0" to="1" dur="0.5s" begin="0.7s" fill="freeze"/>
    <animateTransform attributeName="transform" type="translate" from="0,20" to="0,0" dur="0.5s" begin="0.7s" fill="freeze"/>
    
    <!-- Card -->
    <rect x="732" y="20" width="170" height="220" fill="#111118" rx="4"/>
    <rect x="732" y="20" width="170" height="3" fill="#9966cc" rx="2" opacity="0.9"/>
    
    <!-- Category label -->
    <text x="817" y="46" text-anchor="middle"
      style="font-family:'Courier New',monospace;font-size:9px;letter-spacing:0.3em;fill:#9966cc;text-transform:uppercase">OBSERV.</text>
    
    <!-- Divider -->
    <line x1="744" y1="52" x2="890" y2="52" stroke="#9966cc" stroke-width="0.5" opacity="0.3"/>
    <!-- Prometheus -->
    <rect x="744" y="59" width="146" height="18" fill="#9966cc" rx="2" opacity="0.08"/>
    <rect x="744" y="59" width="146" height="18" fill="none" rx="2" stroke="#9966cc" stroke-width="0.5" opacity="0.2"/>
    <text x="752" y="72" style="font-family:'Courier New',monospace;font-size:10px;fill:#9a9490;letter-spacing:0.05em">Prometheus</text>
    <!-- Grafana -->
    <rect x="744" y="83" width="146" height="18" fill="#9966cc" rx="2" opacity="0.08"/>
    <rect x="744" y="83" width="146" height="18" fill="none" rx="2" stroke="#9966cc" stroke-width="0.5" opacity="0.2"/>
    <text x="752" y="96" style="font-family:'Courier New',monospace;font-size:10px;fill:#9a9490;letter-spacing:0.05em">Grafana</text>
    <!-- OpenTelemetry -->
    <rect x="744" y="107" width="146" height="18" fill="#9966cc" rx="2" opacity="0.08"/>
    <rect x="744" y="107" width="146" height="18" fill="none" rx="2" stroke="#9966cc" stroke-width="0.5" opacity="0.2"/>
    <text x="752" y="120" style="font-family:'Courier New',monospace;font-size:10px;fill:#9a9490;letter-spacing:0.05em">OpenTelemetry</text>
    <!-- LangSmith -->
    <rect x="744" y="131" width="146" height="18" fill="#9966cc" rx="2" opacity="0.08"/>
    <rect x="744" y="131" width="146" height="18" fill="none" rx="2" stroke="#9966cc" stroke-width="0.5" opacity="0.2"/>
    <text x="752" y="144" style="font-family:'Courier New',monospace;font-size:10px;fill:#9a9490;letter-spacing:0.05em">LangSmith</text>
    <!-- MLflow -->
    <rect x="744" y="155" width="146" height="18" fill="#9966cc" rx="2" opacity="0.08"/>
    <rect x="744" y="155" width="146" height="18" fill="none" rx="2" stroke="#9966cc" stroke-width="0.5" opacity="0.2"/>
    <text x="752" y="168" style="font-family:'Courier New',monospace;font-size:10px;fill:#9a9490;letter-spacing:0.05em">MLflow</text>
    <!-- Jaeger -->
    <rect x="744" y="179" width="146" height="18" fill="#9966cc" rx="2" opacity="0.08"/>
    <rect x="744" y="179" width="146" height="18" fill="none" rx="2" stroke="#9966cc" stroke-width="0.5" opacity="0.2"/>
    <text x="752" y="192" style="font-family:'Courier New',monospace;font-size:10px;fill:#9a9490;letter-spacing:0.05em">Jaeger</text>
  </g>
  <text x="461" y="14" text-anchor="middle"
    style="font-family:'Courier New',monospace;font-size:9px;letter-spacing:0.4em;fill:#4e4c48">
    TECH STACK
  </text>
</svg>
