<svg width="884" height="246" viewBox="0 0 884 246" xmlns="http://www.w3.org/2000/svg">
<rect width="884" height="246" fill="#06060a" rx="8"/>
<text x="442" y="16" text-anchor="middle" style="font-family:Courier New,monospace;font-size:9px;fill:#4e4c48;letter-spacing:0.45em">TECH STACK</text>
<g opacity="0">
  <animate attributeName="opacity" from="0" to="1" dur="0.45s" begin="0.10s" fill="freeze"/>
  <animateTransform attributeName="transform" type="translate" from="0 16" to="0 0" dur="0.45s" begin="0.10s" fill="freeze"/>
  <rect x="16" y="22" width="164" height="210" fill="#0f0f16" rx="4"/>
  <rect x="16" y="22" width="164" height="3" fill="#c9a84c" rx="2"/>
  <text x="98" y="42" text-anchor="middle" style="font-family:Courier New,monospace;font-size:9px;fill:#c9a84c;letter-spacing:0.28em">LLM & AI</text>
  <line x1="26" y1="48" x2="170" y2="48" stroke="#c9a84c" stroke-width="0.5" opacity="0.25"/>
  <rect x="26" y="53" width="144" height="17" fill="#c9a84c" rx="3" opacity="0.07"/>
  <rect x="26" y="53" width="144" height="17" fill="none" rx="3" stroke="#c9a84c" stroke-width="0.4" opacity="0.18"/>
  <text x="34" y="66" style="font-family:Courier New,monospace;font-size:9.5px;fill:#9a9490;letter-spacing:0.04em">vLLM</text>
  <rect x="26" y="76" width="144" height="17" fill="#c9a84c" rx="3" opacity="0.07"/>
  <rect x="26" y="76" width="144" height="17" fill="none" rx="3" stroke="#c9a84c" stroke-width="0.4" opacity="0.18"/>
  <text x="34" y="89" style="font-family:Courier New,monospace;font-size:9.5px;fill:#9a9490;letter-spacing:0.04em">LangGraph</text>
  <rect x="26" y="99" width="144" height="17" fill="#c9a84c" rx="3" opacity="0.07"/>
  <rect x="26" y="99" width="144" height="17" fill="none" rx="3" stroke="#c9a84c" stroke-width="0.4" opacity="0.18"/>
  <text x="34" y="112" style="font-family:Courier New,monospace;font-size:9.5px;fill:#9a9490;letter-spacing:0.04em">RAG</text>
  <rect x="26" y="122" width="144" height="17" fill="#c9a84c" rx="3" opacity="0.07"/>
  <rect x="26" y="122" width="144" height="17" fill="none" rx="3" stroke="#c9a84c" stroke-width="0.4" opacity="0.18"/>
  <text x="34" y="135" style="font-family:Courier New,monospace;font-size:9.5px;fill:#9a9490;letter-spacing:0.04em">PyTorch</text>
  <rect x="26" y="145" width="144" height="17" fill="#c9a84c" rx="3" opacity="0.07"/>
  <rect x="26" y="145" width="144" height="17" fill="none" rx="3" stroke="#c9a84c" stroke-width="0.4" opacity="0.18"/>
  <text x="34" y="158" style="font-family:Courier New,monospace;font-size:9.5px;fill:#9a9490;letter-spacing:0.04em">RAGAS</text>
  <rect x="26" y="168" width="144" height="17" fill="#c9a84c" rx="3" opacity="0.07"/>
  <rect x="26" y="168" width="144" height="17" fill="none" rx="3" stroke="#c9a84c" stroke-width="0.4" opacity="0.18"/>
  <text x="34" y="181" style="font-family:Courier New,monospace;font-size:9.5px;fill:#9a9490;letter-spacing:0.04em">Transformers</text>
</g>
<g opacity="0">
  <animate attributeName="opacity" from="0" to="1" dur="0.45s" begin="0.23s" fill="freeze"/>
  <animateTransform attributeName="transform" type="translate" from="0 16" to="0 0" dur="0.45s" begin="0.23s" fill="freeze"/>
  <rect x="188" y="22" width="164" height="210" fill="#0f0f16" rx="4"/>
  <rect x="188" y="22" width="164" height="3" fill="#4bc8c8" rx="2"/>
  <text x="270" y="42" text-anchor="middle" style="font-family:Courier New,monospace;font-size:9px;fill:#4bc8c8;letter-spacing:0.28em">BACKEND</text>
  <line x1="198" y1="48" x2="342" y2="48" stroke="#4bc8c8" stroke-width="0.5" opacity="0.25"/>
  <rect x="198" y="53" width="144" height="17" fill="#4bc8c8" rx="3" opacity="0.07"/>
  <rect x="198" y="53" width="144" height="17" fill="none" rx="3" stroke="#4bc8c8" stroke-width="0.4" opacity="0.18"/>
  <text x="206" y="66" style="font-family:Courier New,monospace;font-size:9.5px;fill:#9a9490;letter-spacing:0.04em">FastAPI</text>
  <rect x="198" y="76" width="144" height="17" fill="#4bc8c8" rx="3" opacity="0.07"/>
  <rect x="198" y="76" width="144" height="17" fill="none" rx="3" stroke="#4bc8c8" stroke-width="0.4" opacity="0.18"/>
  <text x="206" y="89" style="font-family:Courier New,monospace;font-size:9.5px;fill:#9a9490;letter-spacing:0.04em">Spring Boot</text>
  <rect x="198" y="99" width="144" height="17" fill="#4bc8c8" rx="3" opacity="0.07"/>
  <rect x="198" y="99" width="144" height="17" fill="none" rx="3" stroke="#4bc8c8" stroke-width="0.4" opacity="0.18"/>
  <text x="206" y="112" style="font-family:Courier New,monospace;font-size:9.5px;fill:#9a9490;letter-spacing:0.04em">Redis</text>
  <rect x="198" y="122" width="144" height="17" fill="#4bc8c8" rx="3" opacity="0.07"/>
  <rect x="198" y="122" width="144" height="17" fill="none" rx="3" stroke="#4bc8c8" stroke-width="0.4" opacity="0.18"/>
  <text x="206" y="135" style="font-family:Courier New,monospace;font-size:9.5px;fill:#9a9490;letter-spacing:0.04em">Kafka</text>
  <rect x="198" y="145" width="144" height="17" fill="#4bc8c8" rx="3" opacity="0.07"/>
  <rect x="198" y="145" width="144" height="17" fill="none" rx="3" stroke="#4bc8c8" stroke-width="0.4" opacity="0.18"/>
  <text x="206" y="158" style="font-family:Courier New,monospace;font-size:9.5px;fill:#9a9490;letter-spacing:0.04em">PostgreSQL</text>
  <rect x="198" y="168" width="144" height="17" fill="#4bc8c8" rx="3" opacity="0.07"/>
  <rect x="198" y="168" width="144" height="17" fill="none" rx="3" stroke="#4bc8c8" stroke-width="0.4" opacity="0.18"/>
  <text x="206" y="181" style="font-family:Courier New,monospace;font-size:9.5px;fill:#9a9490;letter-spacing:0.04em">pgvector</text>
</g>
<g opacity="0">
  <animate attributeName="opacity" from="0" to="1" dur="0.45s" begin="0.36s" fill="freeze"/>
  <animateTransform attributeName="transform" type="translate" from="0 16" to="0 0" dur="0.45s" begin="0.36s" fill="freeze"/>
  <rect x="360" y="22" width="164" height="210" fill="#0f0f16" rx="4"/>
  <rect x="360" y="22" width="164" height="3" fill="#3ddc84" rx="2"/>
  <text x="442" y="42" text-anchor="middle" style="font-family:Courier New,monospace;font-size:9px;fill:#3ddc84;letter-spacing:0.28em">DATA ENG</text>
  <line x1="370" y1="48" x2="514" y2="48" stroke="#3ddc84" stroke-width="0.5" opacity="0.25"/>
  <rect x="370" y="53" width="144" height="17" fill="#3ddc84" rx="3" opacity="0.07"/>
  <rect x="370" y="53" width="144" height="17" fill="none" rx="3" stroke="#3ddc84" stroke-width="0.4" opacity="0.18"/>
  <text x="378" y="66" style="font-family:Courier New,monospace;font-size:9.5px;fill:#9a9490;letter-spacing:0.04em">Apache Spark</text>
  <rect x="370" y="76" width="144" height="17" fill="#3ddc84" rx="3" opacity="0.07"/>
  <rect x="370" y="76" width="144" height="17" fill="none" rx="3" stroke="#3ddc84" stroke-width="0.4" opacity="0.18"/>
  <text x="378" y="89" style="font-family:Courier New,monospace;font-size:9.5px;fill:#9a9490;letter-spacing:0.04em">Delta Lake</text>
  <rect x="370" y="99" width="144" height="17" fill="#3ddc84" rx="3" opacity="0.07"/>
  <rect x="370" y="99" width="144" height="17" fill="none" rx="3" stroke="#3ddc84" stroke-width="0.4" opacity="0.18"/>
  <text x="378" y="112" style="font-family:Courier New,monospace;font-size:9.5px;fill:#9a9490;letter-spacing:0.04em">Airflow</text>
  <rect x="370" y="122" width="144" height="17" fill="#3ddc84" rx="3" opacity="0.07"/>
  <rect x="370" y="122" width="144" height="17" fill="none" rx="3" stroke="#3ddc84" stroke-width="0.4" opacity="0.18"/>
  <text x="378" y="135" style="font-family:Courier New,monospace;font-size:9.5px;fill:#9a9490;letter-spacing:0.04em">Qdrant</text>
  <rect x="370" y="145" width="144" height="17" fill="#3ddc84" rx="3" opacity="0.07"/>
  <rect x="370" y="145" width="144" height="17" fill="none" rx="3" stroke="#3ddc84" stroke-width="0.4" opacity="0.18"/>
  <text x="378" y="158" style="font-family:Courier New,monospace;font-size:9.5px;fill:#9a9490;letter-spacing:0.04em">Faust</text>
  <rect x="370" y="168" width="144" height="17" fill="#3ddc84" rx="3" opacity="0.07"/>
  <rect x="370" y="168" width="144" height="17" fill="none" rx="3" stroke="#3ddc84" stroke-width="0.4" opacity="0.18"/>
  <text x="378" y="181" style="font-family:Courier New,monospace;font-size:9.5px;fill:#9a9490;letter-spacing:0.04em">FAISS</text>
</g>
<g opacity="0">
  <animate attributeName="opacity" from="0" to="1" dur="0.45s" begin="0.49s" fill="freeze"/>
  <animateTransform attributeName="transform" type="translate" from="0 16" to="0 0" dur="0.45s" begin="0.49s" fill="freeze"/>
  <rect x="532" y="22" width="164" height="210" fill="#0f0f16" rx="4"/>
  <rect x="532" y="22" width="164" height="3" fill="#5588e0" rx="2"/>
  <text x="614" y="42" text-anchor="middle" style="font-family:Courier New,monospace;font-size:9px;fill:#5588e0;letter-spacing:0.28em">CLOUD/INFRA</text>
  <line x1="542" y1="48" x2="686" y2="48" stroke="#5588e0" stroke-width="0.5" opacity="0.25"/>
  <rect x="542" y="53" width="144" height="17" fill="#5588e0" rx="3" opacity="0.07"/>
  <rect x="542" y="53" width="144" height="17" fill="none" rx="3" stroke="#5588e0" stroke-width="0.4" opacity="0.18"/>
  <text x="550" y="66" style="font-family:Courier New,monospace;font-size:9.5px;fill:#9a9490;letter-spacing:0.04em">Kubernetes</text>
  <rect x="542" y="76" width="144" height="17" fill="#5588e0" rx="3" opacity="0.07"/>
  <rect x="542" y="76" width="144" height="17" fill="none" rx="3" stroke="#5588e0" stroke-width="0.4" opacity="0.18"/>
  <text x="550" y="89" style="font-family:Courier New,monospace;font-size:9.5px;fill:#9a9490;letter-spacing:0.04em">Terraform</text>
  <rect x="542" y="99" width="144" height="17" fill="#5588e0" rx="3" opacity="0.07"/>
  <rect x="542" y="99" width="144" height="17" fill="none" rx="3" stroke="#5588e0" stroke-width="0.4" opacity="0.18"/>
  <text x="550" y="112" style="font-family:Courier New,monospace;font-size:9.5px;fill:#9a9490;letter-spacing:0.04em">AWS EKS</text>
  <rect x="542" y="122" width="144" height="17" fill="#5588e0" rx="3" opacity="0.07"/>
  <rect x="542" y="122" width="144" height="17" fill="none" rx="3" stroke="#5588e0" stroke-width="0.4" opacity="0.18"/>
  <text x="550" y="135" style="font-family:Courier New,monospace;font-size:9.5px;fill:#9a9490;letter-spacing:0.04em">Docker</text>
  <rect x="542" y="145" width="144" height="17" fill="#5588e0" rx="3" opacity="0.07"/>
  <rect x="542" y="145" width="144" height="17" fill="none" rx="3" stroke="#5588e0" stroke-width="0.4" opacity="0.18"/>
  <text x="550" y="158" style="font-family:Courier New,monospace;font-size:9.5px;fill:#9a9490;letter-spacing:0.04em">Ray</text>
  <rect x="542" y="168" width="144" height="17" fill="#5588e0" rx="3" opacity="0.07"/>
  <rect x="542" y="168" width="144" height="17" fill="none" rx="3" stroke="#5588e0" stroke-width="0.4" opacity="0.18"/>
  <text x="550" y="181" style="font-family:Courier New,monospace;font-size:9.5px;fill:#9a9490;letter-spacing:0.04em">GitHub Actions</text>
</g>
<g opacity="0">
  <animate attributeName="opacity" from="0" to="1" dur="0.45s" begin="0.62s" fill="freeze"/>
  <animateTransform attributeName="transform" type="translate" from="0 16" to="0 0" dur="0.45s" begin="0.62s" fill="freeze"/>
  <rect x="704" y="22" width="164" height="210" fill="#0f0f16" rx="4"/>
  <rect x="704" y="22" width="164" height="3" fill="#9966cc" rx="2"/>
  <text x="786" y="42" text-anchor="middle" style="font-family:Courier New,monospace;font-size:9px;fill:#9966cc;letter-spacing:0.28em">OBSERV.</text>
  <line x1="714" y1="48" x2="858" y2="48" stroke="#9966cc" stroke-width="0.5" opacity="0.25"/>
  <rect x="714" y="53" width="144" height="17" fill="#9966cc" rx="3" opacity="0.07"/>
  <rect x="714" y="53" width="144" height="17" fill="none" rx="3" stroke="#9966cc" stroke-width="0.4" opacity="0.18"/>
  <text x="722" y="66" style="font-family:Courier New,monospace;font-size:9.5px;fill:#9a9490;letter-spacing:0.04em">Prometheus</text>
  <rect x="714" y="76" width="144" height="17" fill="#9966cc" rx="3" opacity="0.07"/>
  <rect x="714" y="76" width="144" height="17" fill="none" rx="3" stroke="#9966cc" stroke-width="0.4" opacity="0.18"/>
  <text x="722" y="89" style="font-family:Courier New,monospace;font-size:9.5px;fill:#9a9490;letter-spacing:0.04em">Grafana</text>
  <rect x="714" y="99" width="144" height="17" fill="#9966cc" rx="3" opacity="0.07"/>
  <rect x="714" y="99" width="144" height="17" fill="none" rx="3" stroke="#9966cc" stroke-width="0.4" opacity="0.18"/>
  <text x="722" y="112" style="font-family:Courier New,monospace;font-size:9.5px;fill:#9a9490;letter-spacing:0.04em">OpenTelemetry</text>
  <rect x="714" y="122" width="144" height="17" fill="#9966cc" rx="3" opacity="0.07"/>
  <rect x="714" y="122" width="144" height="17" fill="none" rx="3" stroke="#9966cc" stroke-width="0.4" opacity="0.18"/>
  <text x="722" y="135" style="font-family:Courier New,monospace;font-size:9.5px;fill:#9a9490;letter-spacing:0.04em">LangSmith</text>
  <rect x="714" y="145" width="144" height="17" fill="#9966cc" rx="3" opacity="0.07"/>
  <rect x="714" y="145" width="144" height="17" fill="none" rx="3" stroke="#9966cc" stroke-width="0.4" opacity="0.18"/>
  <text x="722" y="158" style="font-family:Courier New,monospace;font-size:9.5px;fill:#9a9490;letter-spacing:0.04em">MLflow</text>
  <rect x="714" y="168" width="144" height="17" fill="#9966cc" rx="3" opacity="0.07"/>
  <rect x="714" y="168" width="144" height="17" fill="none" rx="3" stroke="#9966cc" stroke-width="0.4" opacity="0.18"/>
  <text x="722" y="181" style="font-family:Courier New,monospace;font-size:9.5px;fill:#9a9490;letter-spacing:0.04em">Jaeger</text>
</g>
</svg>
